<svg xmlns="http://www.w3.org/2000/svg" xmlns:xlink="http://www.w3.org/1999/xlink" viewBox="-2 -6 150 150"><defs><style>.a{clip-path:url(#b);}.b{fill:#0093d3;}</style><clipPath id="b"><rect x="-2" y="-6" width="150" height="150"/></clipPath></defs><g id="a" class="a"><g transform="translate(-1801.834 738.166)"><path class="b" d="M144.21,69.63a75,75,0,1,0,75,75A75,75,0,0,0,144.21,69.63Zm0,137.475a62.475,62.475,0,1,1,62.475-62.475A62.475,62.475,0,0,1,144.21,207.1Zm0-116.6a54.127,54.127,0,1,0,54.128,54.127A54.127,54.127,0,0,0,144.21,90.5Zm0,5.43a3.008,3.008,0,1,1,0-.007Zm-41.467,55.92a7.222,7.222,0,1,1,7.223-7.222,7.222,7.222,0,0,1-7.223,7.222Zm41.482,41.483a7.222,7.222,0,1,1,5.1-2.107,7.222,7.222,0,0,1-5.1,2.107Zm32-75.36-22.987,22.98a9.533,9.533,0,0,1,.435,6L169.1,162.4a5.01,5.01,0,1,1-7.08,7.08l-15.458-15.457a9.75,9.75,0,1,1,1.395-18.4l22.988-22.987a3.76,3.76,0,1,1,5.318,5.317Zm9.5,33.885a7.275,7.275,0,1,0-.045,0Z" transform="translate(1730.624 -813.796)"/></g></g></svg>